<svg id="Layer_1" data-name="Layer 1" xmlns="http://www.w3.org/2000/svg" viewBox="0 0 250 250"><defs><style>.cls-1{fill:#3f29ee;}.cls-2,.cls-9{fill:#fff;}.cls-3{fill:#62b8aa;}.cls-4{fill:#c3edc8;}.cls-5{fill:#ee8a2d;}.cls-6{fill:#fdb431;}.cls-7{fill:#e54822;}.cls-8{fill:#f3aeac;}.cls-9{opacity:0.5;}</style></defs><title>Bloc-Course-Ads-2019</title><rect class="cls-1" x="-1.81" y="-1.1" width="251.52" height="254.46"/><path class="cls-2" d="M144.38,79.28c1.85,0,2.9,1.09,2.9,2.57a2.09,2.09,0,0,1-1.38,2,2.26,2.26,0,0,1,1.67,2.26,2.66,2.66,0,0,1-2.93,2.65H141V79.28Zm-.28,3.93c.84,0,1.35-.46,1.35-1.19s-.47-1.18-1.36-1.18h-1.3v2.37Zm.19,4c.9,0,1.43-.47,1.43-1.23a1.24,1.24,0,0,0-1.41-1.28h-1.52v2.51Z"/><path class="cls-2" d="M155,86.9a3,3,0,0,1-3,2.1,3.51,3.51,0,0,1-.16-7,3.08,3.08,0,0,1,3.26,3.42c0,.26,0,.53,0,.55h-4.72A1.61,1.61,0,0,0,152,87.47a1.46,1.46,0,0,0,1.5-1Zm-1.67-2.16a1.32,1.32,0,0,0-1.47-1.3,1.43,1.43,0,0,0-1.48,1.3Z"/><path class="cls-2" d="M157.77,85.49a1.7,1.7,0,0,0,1.69,1.87A1.52,1.52,0,0,0,161,86.25l1.57.52A3.07,3.07,0,0,1,159.46,89,3.42,3.42,0,0,1,156,85.49a3.38,3.38,0,0,1,3.42-3.5,3,3,0,0,1,3.1,2.23l-1.6.54a1.45,1.45,0,0,0-1.46-1.12A1.68,1.68,0,0,0,157.77,85.49Z"/><path class="cls-2" d="M170.22,85.49a3.46,3.46,0,1,1-3.46-3.5A3.39,3.39,0,0,1,170.22,85.49Zm-1.79,0a1.69,1.69,0,1,0-1.67,1.88A1.69,1.69,0,0,0,168.43,85.49Z"/><path class="cls-2" d="M171.62,88.79V82.2h1.71V83a2.26,2.26,0,0,1,1.93-1,2,2,0,0,1,2,1.1,2.3,2.3,0,0,1,2.1-1.1,2.28,2.28,0,0,1,2.38,2.51v4.27H180V84.88a1.1,1.1,0,0,0-1.16-1.25,1.21,1.21,0,0,0-1.22,1.3v3.86h-1.77V84.88a1.11,1.11,0,0,0-1.17-1.25,1.2,1.2,0,0,0-1.23,1.3v3.86Z"/><path class="cls-2" d="M189.42,86.9a3,3,0,0,1-3,2.1,3.51,3.51,0,0,1-.16-7,3.08,3.08,0,0,1,3.26,3.42c0,.26,0,.53,0,.55h-4.72a1.61,1.61,0,0,0,1.66,1.51,1.47,1.47,0,0,0,1.51-1Zm-1.67-2.16a1.32,1.32,0,0,0-1.47-1.3,1.43,1.43,0,0,0-1.48,1.3Z"/><path class="cls-2" d="M195.79,85l1.63-.24c.37-.06.49-.24.49-.47,0-.47-.36-.86-1.11-.86a1.16,1.16,0,0,0-1.26,1.07L194,84.17A2.62,2.62,0,0,1,196.79,82c2.09,0,2.87,1.18,2.87,2.51v3.25a7.22,7.22,0,0,0,.08,1H198.1A4.37,4.37,0,0,1,198,88a2.17,2.17,0,0,1-1.94,1,2.08,2.08,0,0,1-2.27-2A2,2,0,0,1,195.79,85Zm2.12,1.13v-.3l-1.48.23c-.46.07-.82.32-.82.83a.77.77,0,0,0,.86.76A1.33,1.33,0,0,0,197.91,86.13Z"/><path class="cls-2" d="M140.87,98.83V92.69h1.85v6a1.81,1.81,0,1,0,3.61,0v-6h1.85v6.14a3.66,3.66,0,0,1-7.31,0Z"/><path class="cls-2" d="M154.75,97.45l3.12,4.75h-2.24l-2-3.28-2.07,3.28h-2.17l3.13-4.76-3.12-4.75h2.23l2,3.29,2.08-3.29h2.16Z"/><path class="cls-2" d="M168.65,101c0,.44,0,.92,0,1.19H167a4.07,4.07,0,0,1-.07-.76,2.06,2.06,0,0,1-1.85.92,3.47,3.47,0,0,1-.05-6.92,2,2,0,0,1,1.86.82V92.49h1.76Zm-3.35-.24a1.68,1.68,0,0,0,1.62-1.89A1.63,1.63,0,0,0,165.3,97a1.88,1.88,0,0,0,0,3.73Z"/><path class="cls-2" d="M176.49,100.31a3,3,0,0,1-3,2.09,3.51,3.51,0,0,1-.16-7,3.08,3.08,0,0,1,3.26,3.42c0,.26,0,.52,0,.55h-4.72a1.61,1.61,0,0,0,1.66,1.5,1.45,1.45,0,0,0,1.5-1Zm-1.66-2.16a1.33,1.33,0,0,0-1.48-1.3,1.43,1.43,0,0,0-1.47,1.3Z"/><path class="cls-2" d="M179,100a1.09,1.09,0,0,0,1.2,1c.59,0,.88-.3.88-.65s-.21-.54-.72-.65l-.87-.2c-1.27-.28-1.85-1-1.85-2a2.59,2.59,0,0,1,5.06-.25l-1.49.33a1,1,0,0,0-1.09-.88c-.47,0-.84.28-.84.65s.24.53.6.59l.94.2c1.3.27,2,1.06,2,2a2.28,2.28,0,0,1-2.56,2.17,2.47,2.47,0,0,1-2.75-2Z"/><path class="cls-2" d="M185.06,92.33a1.1,1.1,0,1,1-1.1,1.11A1.11,1.11,0,0,1,185.06,92.33Zm-.89,9.87V95.6H186v6.6Z"/><path class="cls-2" d="M189,102.13a1.47,1.47,0,0,0,1.54,1.25c1.13,0,1.76-.56,1.76-1.84v-.48a2.11,2.11,0,0,1-1.84.85,3.06,3.06,0,0,1-3.07-3.21,3.1,3.1,0,0,1,3.07-3.22,2,2,0,0,1,1.88.9V95.6h1.72v5.89a3.19,3.19,0,0,1-3.47,3.46,3,3,0,0,1-3.2-2.39Zm3.32-3.43a1.57,1.57,0,1,0-1.55,1.68A1.54,1.54,0,0,0,192.32,98.7Z"/><path class="cls-2" d="M197.65,102.2h-1.79V95.6h1.73v.82a2.21,2.21,0,0,1,1.91-1A2.32,2.32,0,0,1,201.88,98v4.16H200.1V98.35A1.15,1.15,0,0,0,198.88,97a1.24,1.24,0,0,0-1.23,1.37Z"/><path class="cls-2" d="M209.61,100.31a3,3,0,0,1-3,2.09,3.51,3.51,0,0,1-.16-7,3.08,3.08,0,0,1,3.26,3.42c0,.26,0,.52,0,.55H205a1.61,1.61,0,0,0,1.67,1.5,1.46,1.46,0,0,0,1.5-1Zm-1.67-2.16a1.32,1.32,0,0,0-1.47-1.3,1.43,1.43,0,0,0-1.48,1.3Z"/><path class="cls-2" d="M215.13,97.37a2.71,2.71,0,0,0-.54-.05c-.91,0-1.7.44-1.7,1.86v3h-1.78V95.6h1.73v1a2,2,0,0,1,1.87-1,2.77,2.77,0,0,1,.42,0Z"/><path class="cls-2" d="M216.43,99.85a1.22,1.22,0,1,1-1.22,1.22A1.23,1.23,0,0,1,216.43,99.85Z"/><path class="cls-2" d="M156,32.62a5.52,5.52,0,0,0,2.78-4.94c0-5.63-4.14-7.66-8.47-7.66h-7.84a.83.83,0,0,0-.56.23.82.82,0,0,0-.22.56V46a.82.82,0,0,0,.22.56.79.79,0,0,0,.56.23h8.79c5,0,8.89-3.22,8.89-7.92A6.23,6.23,0,0,0,156,32.62Zm-9.55-8.18a.25.25,0,0,1,.24-.25h3.59c2.2,0,3.91.95,3.91,3.28s-1.41,3.27-3.91,3.27h-3.59a.25.25,0,0,1-.24-.25Zm5,18.21h-4.74a.25.25,0,0,1-.26-.25V35.77a.26.26,0,0,1,.07-.19.25.25,0,0,1,.19-.07h5.43a3.73,3.73,0,0,1,3.83,3.73C155.84,41.66,153.92,42.65,151.4,42.65Zm35.28-10.32a9.81,9.81,0,0,0-8.42-4.57,9.53,9.53,0,1,0,9.82,9.54,10.6,10.6,0,0,0-1.4-5Zm-8.42,10.32a5,5,0,0,1-5.06-5.35,5.07,5.07,0,1,1,10.12,0A5,5,0,0,1,178.26,42.65ZM165.89,20a.75.75,0,0,1,.53.22.68.68,0,0,1,.23.51V46.09a.75.75,0,0,1-.76.73h-3.25a.75.75,0,0,1-.76-.73V20.75a.7.7,0,0,1,.22-.51.77.77,0,0,1,.54-.22Zm37.62,20.72L205.8,43a.51.51,0,0,1,0,.71,10.1,10.1,0,0,1-7.26,3.07,9.54,9.54,0,1,1,0-19.06,10.05,10.05,0,0,1,7.15,3,.56.56,0,0,1,.15.39.55.55,0,0,1-.18.37l-2.43,2.15a.55.55,0,0,1-.73,0,5.81,5.81,0,0,0-4-1.56,5.05,5.05,0,0,0-5.15,5.24,5.05,5.05,0,0,0,5.15,5.25,5.61,5.61,0,0,0,4.19-1.79.52.52,0,0,1,.38-.17.55.55,0,0,1,.38.16Z"/><rect class="cls-2" x="141.11" y="53.17" width="65.48" height="10.85"/><path class="cls-1" d="M152.53,60.67V56.35h1.55a2.16,2.16,0,0,1,0,4.32Zm1.51-.78a1.38,1.38,0,0,0,0-2.76h-.68v2.76Z"/><path class="cls-1" d="M159.58,59.81a1.35,1.35,0,0,1-1.36.95,1.59,1.59,0,0,1-.08-3.18,1.4,1.4,0,0,1,1.48,1.55c0,.12,0,.24,0,.25h-2.14a.73.73,0,0,0,.75.69.65.65,0,0,0,.68-.46Zm-.75-1a.61.61,0,0,0-.67-.59.64.64,0,0,0-.67.59Z"/><path class="cls-1" d="M160.7,59.68a.5.5,0,0,0,.55.46c.27,0,.39-.14.39-.3s-.09-.24-.32-.29l-.39-.09a.92.92,0,0,1-.84-.9,1.17,1.17,0,0,1,2.29-.11l-.68.15a.45.45,0,0,0-.49-.4.34.34,0,0,0-.38.3c0,.14.11.23.27.26l.43.09c.59.13.89.49.89.92a1,1,0,0,1-1.17,1,1.11,1.11,0,0,1-1.24-.93Z"/><path class="cls-1" d="M163.47,56.19a.5.5,0,0,1,.5.5.5.5,0,0,1-.5.5.51.51,0,0,1-.5-.5A.5.5,0,0,1,163.47,56.19Zm-.4,4.48v-3h.81v3Z"/><path class="cls-1" d="M165.26,60.64a.67.67,0,0,0,.7.57c.51,0,.8-.26.8-.84v-.22a.94.94,0,0,1-.84.39,1.46,1.46,0,0,1,0-2.92.93.93,0,0,1,.86.41v-.36h.77v2.68A1.45,1.45,0,0,1,166,61.92a1.37,1.37,0,0,1-1.45-1.09Zm1.51-1.56a.72.72,0,1,0-.71.76A.7.7,0,0,0,166.77,59.08Z"/><path class="cls-1" d="M169.19,60.67h-.81v-3h.78V58a1,1,0,0,1,.87-.45,1.05,1.05,0,0,1,1.08,1.19v1.89h-.81V58.92a.52.52,0,0,0-.55-.59.56.56,0,0,0-.56.62Z"/><path class="cls-1" d="M174.62,59.81a1.36,1.36,0,0,1-1.37.95,1.59,1.59,0,0,1-.07-3.18,1.4,1.4,0,0,1,1.48,1.55c0,.12,0,.24,0,.25H172.5a.74.74,0,0,0,.76.69.66.66,0,0,0,.68-.46Zm-.76-1a.6.6,0,0,0-.67-.59.65.65,0,0,0-.67.59Z"/><path class="cls-1" d="M177.12,58.48l-.24,0c-.41,0-.77.2-.77.85v1.37h-.81v-3h.78v.45a.88.88,0,0,1,.85-.47h.19Z"/><path class="cls-1" d="M181.06,57.15v3.52h-.85V57.15h-1.36v-.8h3.57v.8Z"/><path class="cls-1" d="M184.34,58.48l-.25,0c-.41,0-.77.2-.77.85v1.37h-.81v-3h.79v.45a.88.88,0,0,1,.85-.47h.19Z"/><path class="cls-1" d="M185.64,59l.74-.11c.17,0,.22-.11.22-.22s-.16-.39-.5-.39a.54.54,0,0,0-.58.49l-.72-.15a1.2,1.2,0,0,1,1.29-1c.95,0,1.3.54,1.3,1.14v1.47a3.08,3.08,0,0,0,0,.48h-.74a1.86,1.86,0,0,1,0-.36,1,1,0,0,1-.89.44.94.94,0,0,1-1-.9A.92.92,0,0,1,185.64,59Zm1,.51v-.14l-.68.11c-.2,0-.37.14-.37.37a.35.35,0,0,0,.39.35A.61.61,0,0,0,186.6,59.46Z"/><path class="cls-1" d="M188.78,59.17a.77.77,0,0,0,.77.85.68.68,0,0,0,.68-.51l.72.24a1.4,1.4,0,0,1-1.4,1,1.59,1.59,0,0,1,0-3.18,1.38,1.38,0,0,1,1.41,1l-.73.25a.65.65,0,0,0-.66-.51A.76.76,0,0,0,188.78,59.17Z"/><path class="cls-1" d="M193.25,58.93l1.22,1.74h-1l-.79-1.15-.34.36v.79h-.81V56.26h.81v2.53l1-1.12h1.06Z"/><polygon class="cls-3" points="106.82 235.33 32.34 235.33 32.34 161.97 59.13 135.19 106.82 135.19 106.82 235.33"/><polygon class="cls-4" points="32.34 161.97 59.13 161.97 59.13 135.19 32.34 161.97"/><polygon class="cls-5" points="214.84 235.09 140.37 235.09 140.37 161.73 167.15 134.95 214.84 134.95 214.84 235.09"/><polygon class="cls-6" points="140.37 161.73 167.15 161.73 167.15 134.95 140.37 161.73"/><polygon class="cls-7" points="106.82 118.82 32.34 118.82 32.34 45.47 59.13 18.68 106.82 18.68 106.82 118.82"/><polygon class="cls-8" points="32.34 45.47 59.13 45.47 59.13 18.68 32.34 45.47"/><rect class="cls-4" x="88.18" y="145.47" width="6.52" height="6.52"/><rect class="cls-4" x="88.18" y="157.9" width="6.52" height="6.52"/><rect class="cls-4" x="88.18" y="170.33" width="6.52" height="6.52"/><rect class="cls-4" x="88.18" y="182.76" width="6.52" height="6.52"/><rect class="cls-4" x="88.18" y="195.44" width="6.52" height="6.52"/><rect class="cls-4" x="88.18" y="207.87" width="6.52" height="6.52"/><rect class="cls-4" x="88.18" y="220.3" width="6.52" height="6.52"/><rect class="cls-9" x="167.39" y="147.04" width="38.8" height="3.3"/><rect class="cls-9" x="167.39" y="157.2" width="38.8" height="3.3"/><rect class="cls-9" x="149.37" y="167.64" width="56.82" height="3.3"/><rect class="cls-8" x="41.93" y="59.73" width="23.96" height="6.5"/><rect class="cls-8" x="73.18" y="59.73" width="23.96" height="6.5"/><rect class="cls-9" x="149.37" y="178.08" width="56.82" height="3.3"/><rect class="cls-9" x="149.37" y="188.52" width="56.82" height="3.3"/><rect class="cls-9" x="149.37" y="198.96" width="56.82" height="3.3"/><rect class="cls-9" x="149.37" y="209.4" width="56.82" height="3.3"/><rect class="cls-9" x="149.37" y="219.84" width="56.82" height="3.3"/><rect class="cls-8" x="41.93" y="73.7" width="55.2" height="37.15"/></svg>